HIERARCHY
ROOT hip
{
	OFFSET	0.00  0.00  0.00 
	CHANNELS 6 Xposition Yposition Zposition Xrotation Zrotation Yrotation
	JOINT abdomen
	{
		OFFSET	0.000000 1.799998 0.000000
		CHANNELS 3 Xrotation Zrotation Yrotation
		JOINT chest
		{
			OFFSET	0.000000 4.464001 -0.360000
			CHANNELS 3 Xrotation Zrotation Yrotation
			JOINT neck
			{
				OFFSET	0.000000 5.400002 -0.144000
				CHANNELS 3 Xrotation Zrotation Yrotation
				JOINT head
				{
					OFFSET	0.000000 1.655998 0.000000
					CHANNELS 3 Xrotation Zrotation Yrotation
				}
			}
			JOINT lCollar
			{
				OFFSET	1.800000 3.528000 -0.432000
				CHANNELS 3 Yrotation Zrotation Xrotation
				JOINT lShldr
				{
					OFFSET	1.728000 0.000000 0.000000
					CHANNELS 3 Zrotation Yrotation Xrotation
					JOINT lForeArm
					{
						OFFSET	5.328000 0.000000 0.000000
						CHANNELS 3 Yrotation Zrotation Xrotation
						JOINT lHand
						{
							OFFSET	4.464000 0.000000 0.000000
							CHANNELS 3 Zrotation Yrotation Xrotation
						}
					}
				}
			}
			JOINT rCollar
			{
				OFFSET	-1.872000 3.528000 -0.432000
				CHANNELS 3 Yrotation Zrotation Xrotation
				JOINT rShldr
				{
					OFFSET	-1.656000 0.000000 0.000000
					CHANNELS 3 Zrotation Yrotation Xrotation
					JOINT rForeArm
					{
						OFFSET	-5.400000 0.000000 0.000000
						CHANNELS 3 Yrotation Zrotation Xrotation
						JOINT rHand
						{
							OFFSET	-4.392000 0.000000 0.000000
							CHANNELS 3 Zrotation Yrotation Xrotation
						}
					}
				}
			}
		}
	}
	JOINT lThigh
	{
		OFFSET	2.808000 -0.864002 0.720000
		CHANNELS 3 Xrotation Zrotation Yrotation
		JOINT lShin
		{
			OFFSET	-1.080000 -10.583999 0.000000
			CHANNELS 3 Xrotation Zrotation Yrotation
			JOINT lFoot
			{
				OFFSET	0.000000 -10.152000 -0.648000
				CHANNELS 3 Xrotation Yrotation Zrotation
				End Site
				{
					OFFSET 0.000000 -1.296000 2.448000
				}
			}
		}
	}
	JOINT rThigh
	{
		OFFSET	-2.808000 -0.864002 0.720000
		CHANNELS 3 Xrotation Zrotation Yrotation
		JOINT rShin
		{
			OFFSET	1.080000 -10.583999 0.000000
			CHANNELS 3 Xrotation Zrotation Yrotation
			JOINT rFoot
			{
				OFFSET	0.000000 -10.152000 -0.648000
				CHANNELS 3 Xrotation Yrotation Zrotation
				End Site
				{
					OFFSET 0.000000 -1.296000 2.448000
				}
			}
		}
	}
}
MOTION
Frames:     21
Frame Time: 0.033333
0.000000 23.151886 0.000000 0.000000 0.000000 0.000000 0.000000 0.000000 0.000000 0.000000 0.000000 0.000000 0.000000 0.000000 0.000000 0.000000 0.000000 0.000000 0.000000 0.000000 0.000000 0.000000 0.000000 0.000000 0.000000 0.000000 0.000000 0.000000 0.000000 0.000000 9.990230 0.000000 0.000000 0.000000 0.000000 0.000000 0.000000 0.000000 0.000000 0.000000 0.000000 0.000000 0.000000 0.000000 0.000000 0.009766 0.000000 0.000000 -0.097656 0.000000 0.000000 0.000000 -0.019531 0.000000 0.009766 0.019531 -0.009766 0.166016 0.009766 0.000000 
0.000000 23.151886 0.000000 0.000000 0.000000 0.000000 0.000000 0.000000 0.664063 0.000000 0.000000 0.380859 0.000000 0.000000 -0.585631 -1.150043 -0.423246 -1.116614 0.000000 0.000000 0.000000 0.000000 0.000000 0.000000 0.000000 0.000000 0.000000 0.000000 0.000000 0.000000 9.979040 0.000096 0.000000 68.171402 0.162269 1.668930 12.417100 -0.277778 -4.873400 0.000000 0.000000 0.712445 0.000000 0.000000 0.000000 0.009766 0.000000 0.000000 -0.097656 0.000000 0.000000 0.000000 -0.019531 0.000000 0.009766 0.019531 -0.009766 0.166016 0.009766 0.000000 
0.000000 23.151886 0.000000 0.000000 0.000000 0.000000 0.105783 -0.007446 1.711871 0.111778 -0.024480 1.393759 0.000000 0.000000 -1.988328 -2.528460 -0.929109 -2.458687 0.000000 0.000000 0.000000 0.000000 0.000000 0.000000 0.000000 0.000000 0.000000 0.000000 0.000000 0.000000 10.321412 -0.026306 -0.004032 66.800758 2.599313 1.991129 12.465542 -0.560706 -9.437823 0.000000 0.000000 1.564042 0.000000 0.000000 0.000000 0.009766 0.000000 0.000000 -0.097656 0.000000 0.000000 0.000000 -0.019531 0.000000 0.009766 0.019531 -0.009766 0.166016 0.009766 0.000000 
0.000000 23.151886 0.000000 0.000000 0.000000 0.000000 0.332188 -0.023518 3.063636 0.374410 -0.077013 3.006169 0.000000 0.000000 -4.116016 -3.990659 -1.464931 -3.884526 0.000000 0.000000 0.000000 0.000000 0.000000 0.000000 0.000000 0.000000 0.000000 0.000000 0.000000 0.000000 11.062610 -0.074007 -0.011599 65.204468 7.273506 0.582016 11.411752 -0.805600 -12.897848 0.000000 0.000000 2.466125 0.000000 0.000000 0.000000 0.009766 0.000000 0.000000 -0.097656 0.000000 0.000000 0.000000 -0.019531 0.000000 0.009766 0.019531 -0.009766 0.166016 0.009766 0.000000 
0.000000 23.151886 0.000000 0.000000 0.000000 0.000000 0.652959 -0.046541 4.605095 0.790231 -0.151700 5.007803 0.000000 0.000000 -6.625638 -5.499300 -2.018302 -5.354605 0.000000 0.000000 0.000000 0.000000 0.000000 0.000000 0.000000 0.000000 0.000000 0.000000 0.000000 0.000000 12.106909 -0.124950 -0.020339 63.534245 13.196347 -2.118072 9.845706 -1.014252 -15.407509 0.000000 0.000000 3.397728 0.000000 0.000000 0.000000 0.009766 0.000000 0.000000 -0.097656 0.000000 0.000000 0.000000 -0.019531 0.000000 0.009766 0.019531 -0.009766 0.166016 0.009766 0.000000 
0.000000 23.151886 0.000000 0.000000 0.000000 0.000000 1.041840 -0.074842 6.234037 1.361575 -0.242645 7.213157 0.000000 0.000000 -9.174135 -7.017044 -2.576810 -6.829399 0.000000 0.000000 0.000000 0.000000 0.000000 0.000000 0.000000 0.000000 0.000000 0.000000 0.000000 0.000000 13.358583 -0.161075 -0.027884 61.788136 19.379332 -5.668796 9.008710 -1.188454 -17.120842 0.000000 0.000000 4.337883 0.000000 0.000000 0.000000 0.009766 0.000000 0.000000 -0.097656 0.000000 0.000000 0.000000 -0.019531 0.000000 0.009766 0.019531 -0.009766 0.166016 0.009766 0.000000 
0.000000 23.151886 0.000000 0.000000 0.000000 0.000000 1.472575 -0.106746 7.856702 2.090778 -0.343949 9.456770 0.000000 0.000000 -11.418450 -8.506552 -3.128043 -8.269380 0.000000 0.000000 0.000000 0.000000 0.000000 0.000000 0.000000 0.000000 0.000000 0.000000 0.000000 0.000000 14.721908 -0.164324 -0.031870 59.964203 24.833952 -9.629817 10.142073 -1.330000 -18.191885 0.000000 0.000000 5.265625 0.000000 0.000000 0.000000 0.009766 0.000000 0.000000 -0.097656 0.000000 0.000000 0.000000 -0.019531 0.000000 0.009766 0.019531 -0.009766 0.166016 0.009766 0.000000 
0.000000 23.151886 0.000000 0.000000 0.000000 0.000000 1.918907 -0.140578 9.375648 2.980175 -0.449714 11.576720 0.000000 0.000000 -13.015525 -9.930483 -3.659591 -9.635021 0.000000 0.000000 0.000000 0.000000 0.000000 0.000000 0.000000 0.000000 0.000000 0.000000 0.000000 0.000000 16.101154 -0.116638 -0.029933 58.060513 28.571712 -13.560798 14.487103 -1.440683 -18.774670 0.000000 0.000000 6.159986 0.000000 0.000000 0.000000 0.009766 0.000000 0.000000 -0.097656 0.000000 0.000000 0.000000 -0.019531 0.000000 0.009766 0.019531 -0.009766 0.166016 0.009766 0.000000 
0.000000 23.151886 0.000000 0.000000 0.000000 0.000000 2.354580 -0.174665 10.615200 4.032100 -0.554043 13.311100 0.000000 0.000000 -13.622300 -11.251500 -4.159040 -10.886800 0.000000 0.000000 0.000000 0.000000 0.000000 0.000000 0.000000 0.000000 0.000000 0.000000 0.000000 0.000000 17.400600 0.000041 -0.019708 56.075100 29.604099 -17.021400 23.285101 -1.522295 -19.023230 0.000000 0.000000 7.000000 0.000000 0.000000 0.000000 0.009766 0.000000 0.000000 -0.097656 0.000000 0.000000 0.000000 -0.019531 0.000000 0.009766 0.019531 -0.009766 0.166016 0.009766 0.000000 
0.000000 23.151886 0.000000 0.000000 0.000000 0.000000 2.757957 -0.207619 10.604643 5.231840 -0.652068 13.314576 0.000000 0.000000 -13.618665 -12.439875 -4.616270 -11.993432 0.000000 0.000000 0.000000 0.000000 0.000000 0.000000 0.000000 0.000000 0.000000 0.000000 0.000000 0.000000 18.542418 0.198101 -0.000002 54.061302 27.620571 -19.654478 36.682560 -1.576629 -19.091600 0.000000 0.000000 7.768569 0.000000 0.000000 0.000000 0.009766 0.000000 0.000000 -0.097656 0.000000 0.000000 0.000000 -0.019531 0.000000 0.009766 0.019531 -0.009766 0.166016 0.009766 0.000000 
0.000000 23.151886 0.000000 0.000000 0.000000 0.000000 3.126164 -0.239213 10.592768 6.496480 -0.743098 13.318486 0.000000 0.000000 -13.615029 -13.496337 -5.030568 -12.956622 0.000000 0.000000 0.000000 0.000000 0.000000 0.000000 0.000000 0.000000 0.000000 0.000000 0.000000 0.000000 19.520391 0.467242 0.025684 52.293671 25.022400 -21.435652 50.446701 -1.605479 -19.131096 0.000000 0.000000 8.464495 0.000000 0.000000 0.000000 0.009766 0.000000 0.000000 -0.097656 0.000000 0.000000 0.000000 -0.019531 0.000000 0.009766 0.019531 -0.009766 0.166016 0.009766 0.000000 
0.000000 23.151886 0.000000 0.000000 0.000000 0.000000 3.460993 -0.269511 10.580896 7.726057 -0.827484 13.322392 0.000000 0.000000 -13.611394 -14.429221 -5.403554 -13.786310 0.000000 0.000000 0.000000 0.000000 0.000000 0.000000 0.000000 0.000000 0.000000 0.000000 0.000000 0.000000 20.346212 0.791496 0.052675 51.102055 24.202734 -22.423725 60.279655 -1.610637 -19.170591 0.000000 0.000000 9.090519 0.000000 0.000000 0.000000 0.009766 0.000000 0.000000 -0.097656 0.000000 0.000000 0.000000 -0.019531 0.000000 0.009766 0.019531 -0.009766 0.166016 0.009766 0.000000 
0.000000 23.151886 0.000000 0.000000 0.000000 0.000000 3.764194 -0.298572 10.569034 8.820608 -0.905565 13.326293 0.000000 0.000000 -13.607759 -15.246871 -5.736825 -14.492446 0.000000 0.000000 0.000000 0.000000 0.000000 0.000000 0.000000 0.000000 0.000000 0.000000 0.000000 0.000000 21.031561 1.154891 0.076297 50.816315 24.810364 -22.677505 66.002312 -1.593896 -19.210087 0.000000 0.000000 9.649343 0.000000 0.000000 0.000000 0.009766 0.000000 0.000000 -0.097656 0.000000 0.000000 0.000000 -0.019531 0.000000 0.009766 0.019531 -0.009766 0.166016 0.009766 0.000000 
0.000000 23.151886 0.000000 0.000000 0.000000 0.000000 4.037475 -0.326457 10.557185 9.680174 -0.977676 13.330189 0.000000 0.000000 -13.604123 -15.957629 -6.031947 -15.084978 0.000000 0.000000 0.000000 0.000000 0.000000 0.000000 0.000000 0.000000 0.000000 0.000000 0.000000 0.000000 21.588123 1.541458 0.091877 51.766300 25.808001 -22.255800 68.465302 -1.557050 -19.249582 0.000000 0.000000 10.143621 0.000000 0.000000 0.000000 0.009766 0.000000 0.000000 -0.097656 0.000000 0.000000 0.000000 -0.019531 0.000000 0.009766 0.019531 -0.009766 0.166016 0.009766 0.000000 
0.000000 23.151886 0.000000 0.000000 0.000000 0.000000 4.282503 -0.353222 10.545356 10.204787 -1.044140 13.334078 0.000000 0.000000 -13.600488 -16.569834 -6.290464 -15.573851 0.000000 0.000000 0.000000 0.000000 0.000000 0.000000 0.000000 0.000000 0.000000 0.000000 0.000000 0.000000 22.027582 1.935226 0.094741 53.954643 26.380848 -21.267450 68.139435 -1.501890 -19.289078 0.000000 0.000000 10.575967 0.000000 0.000000 0.000000 0.009766 0.000000 0.000000 -0.097656 0.000000 0.000000 0.000000 -0.019531 0.000000 0.009766 0.019531 -0.009766 0.166016 0.009766 0.000000 
0.000000 23.151886 0.000000 0.000000 0.000000 0.000000 4.500903 -0.378924 10.533548 10.294487 -1.105274 13.337958 0.000000 0.000000 -13.596852 -17.091831 -6.513896 -15.969011 0.000000 0.000000 0.000000 0.000000 0.000000 0.000000 0.000000 0.000000 0.000000 0.000000 0.000000 0.000000 22.361624 2.320227 0.080214 56.075100 26.604099 -20.021400 63.976398 -1.430210 -19.328573 0.000000 0.000000 10.948950 0.000000 0.000000 0.000000 0.009766 0.000000 0.000000 -0.097656 0.000000 0.000000 0.000000 -0.019531 0.000000 0.009766 0.019531 -0.009766 0.166016 0.009766 0.000000 
0.000000 23.151886 0.000000 0.000000 0.000000 0.000000 4.694260 -0.403618 10.521767 9.849310 -1.161385 13.341826 0.000000 0.000000 -13.593217 -17.531961 -6.703734 -16.280407 0.000000 0.000000 0.000000 0.000000 0.000000 0.000000 0.000000 0.000000 0.000000 0.000000 0.000000 0.000000 22.601933 2.680488 0.043622 56.850674 26.726524 -18.816231 55.770535 -1.343803 -19.368069 0.000000 0.000000 11.265095 0.000000 0.000000 0.000000 0.009766 0.000000 0.000000 -0.097656 0.000000 0.000000 0.000000 -0.019531 0.000000 0.009766 0.019531 -0.009766 0.166016 0.009766 0.000000 
0.000000 23.151886 0.000000 0.000000 0.000000 0.000000 4.864112 -0.427355 10.510017 8.853947 -1.212774 13.345683 0.000000 0.000000 -13.589581 -17.898563 -6.861443 -16.517986 0.000000 0.000000 0.000000 0.000000 0.000000 0.000000 0.000000 0.000000 0.000000 0.000000 0.000000 0.000000 22.760189 3.000040 -0.019708 56.430286 26.801165 -17.708889 48.205898 -1.244461 -19.407564 0.000000 0.000000 11.526881 0.000000 0.000000 0.000000 0.009766 0.000000 0.000000 -0.097656 0.000000 0.000000 0.000000 -0.019531 0.000000 0.009766 0.019531 -0.009766 0.166016 0.009766 0.000000 
0.000000 23.151886 0.000000 0.000000 0.000000 0.000000 5.011960 -0.450188 10.498304 7.641768 -1.259731 13.349525 0.000000 0.000000 -13.585946 -18.199980 -6.988459 -16.691694 0.000000 0.000000 0.000000 0.000000 0.000000 0.000000 0.000000 0.000000 0.000000 0.000000 0.000000 0.000000 22.848080 3.266076 -0.113216 55.319332 26.832144 -16.695925 45.868313 -1.133978 -19.447060 0.000000 0.000000 11.736740 0.000000 0.000000 0.000000 0.009766 0.000000 0.000000 -0.097656 0.000000 0.000000 0.000000 -0.019531 0.000000 0.009766 0.019531 -0.009766 0.166016 0.009766 0.000000 
0.000000 23.151886 0.000000 0.000000 0.000000 0.000000 5.139258 -0.472164 10.486636 6.590470 -1.302537 13.353355 0.000000 0.000000 -13.582311 -18.444550 -7.086195 -16.811480 0.000000 0.000000 0.000000 0.000000 0.000000 0.000000 0.000000 0.000000 0.000000 0.000000 0.000000 0.000000 22.877291 3.478433 -0.235409 54.023201 26.823586 -15.773890 48.060814 -1.014145 -19.486555 0.000000 0.000000 11.897066 0.000000 0.000000 0.000000 0.009766 0.000000 0.000000 -0.097656 0.000000 0.000000 0.000000 -0.019531 0.000000 0.009766 0.019531 -0.009766 0.166016 0.009766 0.000000 
0.000000 23.151886 0.000000 0.000000 0.000000 0.000000 5.247420 -0.493332 10.475019 7.172399 -1.341468 13.357174 0.000000 0.000000 -13.578675 -18.640615 -7.156038 -16.887287 0.000000 0.000000 0.000000 0.000000 0.000000 0.000000 0.000000 0.000000 0.000000 0.000000 0.000000 0.000000 22.859503 3.640112 -0.383556 52.958206 26.779615 -14.939341 52.765755 -0.886757 -19.526051 0.000000 0.000000 12.010205 0.000000 0.000000 0.000000 0.009766 0.000000 0.000000 -0.097656 0.000000 0.000000 0.000000 -0.019531 0.000000 0.009766 0.019531 -0.009766 0.166016 0.009766 0.000000 
